<svg width="512" height="512" viewBox="0 0 512 512" xmlns="http://www.w3.org/2000/svg">
  <defs>
    <linearGradient id="grad1" x1="0%" y1="0%" x2="100%" y2="100%">
      <stop offset="0%" style="stop-color:#4CAF50;stop-opacity:1" />
      <stop offset="100%" style="stop-color:#2E7D32;stop-opacity:1" />
    </linearGradient>
  </defs>
  
  <!-- Background -->
  <rect width="512" height="512" rx="80" fill="url(#grad1)"/>
  
  <!-- Farm House -->
  <rect x="156" y="280" width="200" height="120" fill="#8D6E63" stroke="#5D4037" stroke-width="8"/>
  <polygon points="156,280 256,200 356,280" fill="#8D6E63" stroke="#5D4037" stroke-width="8"/>
  <rect x="176" y="320" width="40" height="60" fill="#81C784"/>
  <rect x="296" y="320" width="40" height="60" fill="#81C784"/>
  
  <!-- Sun -->
  <circle cx="400" cy="120" r="40" fill="#FFD54F"/>
  <circle cx="400" cy="120" r="30" fill="#FFEB3B"/>
  
  <!-- Crops -->
  <circle cx="120" cy="400" r="25" fill="#8BC34A"/>
  <circle cx="160" cy="420" r="20" fill="#8BC34A"/>
  <circle cx="200" cy="400" r="25" fill="#8BC34A"/>
  <circle cx="240" cy="420" r="20" fill="#8BC34A"/>
  <circle cx="280" cy="400" r="25" fill="#8BC34A"/>
  <circle cx="320" cy="420" r="20" fill="#8BC34A"/>
  <circle cx="360" cy="400" r="25" fill="#8BC34A"/>
  
  <!-- Livestock -->
  <ellipse cx="100" cy="320" rx="15" ry="20" fill="#795548"/>
  <ellipse cx="420" cy="320" rx="15" ry="20" fill="#795548"/>
  
  <!-- Smart Elements -->
  <circle cx="256" cy="256" r="8" fill="#FFFFFF" opacity="0.8"/>
  <circle cx="256" cy="256" r="4" fill="#4CAF50"/>
</svg>
